<svg id="BACKGROUND" xmlns="http://www.w3.org/2000/svg" viewBox="0 0 179.84 52.39"><defs><style>.cls-1{fill:#102463;}.cls-2{fill:#2e6cc6;}</style></defs><title>goscore_final_color</title><path class="cls-1" d="M25.39,35.72a15,15,0,0,1-.9,5.45A10.38,10.38,0,0,1,22,45a10.43,10.43,0,0,1-4,2.27,16.86,16.86,0,0,1-5.17.75A21.08,21.08,0,0,1,7,47.17a15.83,15.83,0,0,1-5.17-2.49l3.52-5a10.36,10.36,0,0,0,3.41,2,10.73,10.73,0,0,0,3.67.67A5.91,5.91,0,0,0,17,40.74a6.23,6.23,0,0,0,1.47-4.33V35.12h-.12a7,7,0,0,1-2.66,2.06,9.11,9.11,0,0,1-3.82.77,10.09,10.09,0,0,1-4.33-.88,9.51,9.51,0,0,1-3.2-2.38,10.45,10.45,0,0,1-2-3.49A12.85,12.85,0,0,1,1.67,27a13,13,0,0,1,.69-4.24,10.88,10.88,0,0,1,2-3.56,9.89,9.89,0,0,1,3.2-2.47,9.72,9.72,0,0,1,4.29-.92,9.51,9.51,0,0,1,3.86.81,6.79,6.79,0,0,1,3,2.53h.08V16.38h6.65ZM18.7,26.93a5.74,5.74,0,0,0-.37-2.06,5.13,5.13,0,0,0-1-1.74A5,5,0,0,0,15.65,22a5.21,5.21,0,0,0-2.14-.43,5,5,0,0,0-2.12.43,4.83,4.83,0,0,0-1.57,1.16,5,5,0,0,0-1,1.72,6.34,6.34,0,0,0-.35,2.1A6.23,6.23,0,0,0,8.84,29a5.09,5.09,0,0,0,1,1.73,5,5,0,0,0,1.57,1.21,4.9,4.9,0,0,0,2.12.45,5.26,5.26,0,0,0,2.17-.45,5.46,5.46,0,0,0,1.63-1.18,5.2,5.2,0,0,0,1-1.72A5.88,5.88,0,0,0,18.7,26.93Z"/><path class="cls-1" d="M53.61,27a11.66,11.66,0,0,1-.94,4.74,10.49,10.49,0,0,1-2.58,3.6,11.76,11.76,0,0,1-3.77,2.3,13.35,13.35,0,0,1-9.16,0,11.54,11.54,0,0,1-3.77-2.3,10.55,10.55,0,0,1-2.55-3.6A11.5,11.5,0,0,1,29.89,27a11.44,11.44,0,0,1,.95-4.72,10.58,10.58,0,0,1,2.55-3.56,11.21,11.21,0,0,1,3.77-2.23,14,14,0,0,1,9.16,0,11.41,11.41,0,0,1,3.77,2.23,10.52,10.52,0,0,1,2.58,3.56A11.6,11.6,0,0,1,53.61,27Zm-6.78,0a6,6,0,0,0-.34-2,5.33,5.33,0,0,0-1-1.74A5,5,0,0,0,43.92,22a5.24,5.24,0,0,0-4.38,0A4.64,4.64,0,0,0,38,23.22,5.24,5.24,0,0,0,37,25a6.5,6.5,0,0,0,0,4,5.6,5.6,0,0,0,1,1.78A5.09,5.09,0,0,0,44,32a4.68,4.68,0,0,0,1.59-1.26,5.58,5.58,0,0,0,1-1.78A6.32,6.32,0,0,0,46.83,27Z"/><path class="cls-2" d="M70.63,22.68a7.84,7.84,0,0,0-2-1.37,5.6,5.6,0,0,0-2.45-.56,4.28,4.28,0,0,0-1.82.39,1.35,1.35,0,0,0-.83,1.33,1.3,1.3,0,0,0,.92,1.28,19.1,19.1,0,0,0,3,.86,16.26,16.26,0,0,1,2.42.73,8.54,8.54,0,0,1,2.21,1.25,5.89,5.89,0,0,1,1.59,1.88,5.56,5.56,0,0,1,.6,2.66,6.42,6.42,0,0,1-2.94,5.66A9.23,9.23,0,0,1,68.36,38a14.51,14.51,0,0,1-3.26.38A16.29,16.29,0,0,1,60,37.59a10.66,10.66,0,0,1-4.18-2.47L59.74,31a7.84,7.84,0,0,0,2.32,1.72,6.48,6.48,0,0,0,2.91.68,3.73,3.73,0,0,0,1.7-.41,1.45,1.45,0,0,0,.83-1.43,1.53,1.53,0,0,0-1-1.46,18.2,18.2,0,0,0-3.21-1A16.77,16.77,0,0,1,61,28.39a7.08,7.08,0,0,1-2-1.16,5.9,5.9,0,0,1-1.43-1.8A5.43,5.43,0,0,1,57,22.85a6.28,6.28,0,0,1,.81-3.28A7.07,7.07,0,0,1,60,17.36a9.18,9.18,0,0,1,2.85-1.26,12.36,12.36,0,0,1,3.11-.41,15,15,0,0,1,4.69.75,10.08,10.08,0,0,1,3.88,2.25Z"/><path class="cls-2" d="M93.06,23.28A4.23,4.23,0,0,0,91.43,22a4.87,4.87,0,0,0-2.1-.47,4.43,4.43,0,0,0-2,.45,4.93,4.93,0,0,0-1.55,1.2,5.54,5.54,0,0,0-1,1.74,5.8,5.8,0,0,0-.37,2.1,6.33,6.33,0,0,0,.34,2.1,5.2,5.2,0,0,0,1,1.74,4.63,4.63,0,0,0,1.59,1.17,4.81,4.81,0,0,0,2.08.43,5.86,5.86,0,0,0,2.12-.4,4.22,4.22,0,0,0,1.7-1.18l3.9,4.76a9.09,9.09,0,0,1-3.43,2,13.42,13.42,0,0,1-4.46.73,14.3,14.3,0,0,1-4.73-.77,10.87,10.87,0,0,1-3.81-2.25,10.46,10.46,0,0,1-2.54-3.58,11.65,11.65,0,0,1-.93-4.76,11.53,11.53,0,0,1,.93-4.72,10.37,10.37,0,0,1,2.54-3.58,11.07,11.07,0,0,1,3.81-2.27,13.7,13.7,0,0,1,4.68-.8,11.8,11.8,0,0,1,2.3.22,14.08,14.08,0,0,1,2.19.58,9.76,9.76,0,0,1,1.93.9,8,8,0,0,1,1.52,1.18Z"/><path class="cls-2" d="M122.53,27a11.5,11.5,0,0,1-1,4.74,10.47,10.47,0,0,1-2.57,3.6,11.86,11.86,0,0,1-3.77,2.3,13.35,13.35,0,0,1-9.16,0,11.54,11.54,0,0,1-3.77-2.3,10.58,10.58,0,0,1-2.56-3.6A11.49,11.49,0,0,1,98.81,27a11.43,11.43,0,0,1,.94-4.72,10.61,10.61,0,0,1,2.56-3.56,11.21,11.21,0,0,1,3.77-2.23,14,14,0,0,1,9.16,0A11.52,11.52,0,0,1,119,18.69a10.5,10.5,0,0,1,2.57,3.56A11.44,11.44,0,0,1,122.53,27Zm-6.78,0a6,6,0,0,0-.34-2,5.33,5.33,0,0,0-1-1.74A5,5,0,0,0,112.83,22a4.7,4.7,0,0,0-2.18-.48,4.79,4.79,0,0,0-3.76,1.7A5.4,5.4,0,0,0,106,25a6.5,6.5,0,0,0,0,4,5.6,5.6,0,0,0,1,1.78A4.55,4.55,0,0,0,108.5,32a5.34,5.34,0,0,0,4.38,0,4.55,4.55,0,0,0,1.58-1.26,5.6,5.6,0,0,0,1-1.78A6.61,6.61,0,0,0,115.75,27Z"/><path class="cls-2" d="M140.84,22.17a5.28,5.28,0,0,0-.92-.17c-.3,0-.6-.05-.88-.05a5,5,0,0,0-2.38.52,4.6,4.6,0,0,0-2.38,2.82,5.37,5.37,0,0,0-.26,1.5v11h-7V16.4h6.77v3.09h.09a7,7,0,0,1,2.31-2.68,6,6,0,0,1,3.48-1,7.56,7.56,0,0,1,.83,0,3.05,3.05,0,0,1,.67.13Z"/><path class="cls-2" d="M164.38,27.31v.86a7.15,7.15,0,0,1,0,.82H148.86a3.79,3.79,0,0,0,.54,1.63,4.74,4.74,0,0,0,1.15,1.26A5.67,5.67,0,0,0,154,33a6,6,0,0,0,2.83-.62,5.61,5.61,0,0,0,1.89-1.61l4.89,3.09a9.86,9.86,0,0,1-4,3.36,13,13,0,0,1-5.72,1.18,13.7,13.7,0,0,1-4.55-.75,11,11,0,0,1-3.75-2.19A10,10,0,0,1,143.05,32a11.79,11.79,0,0,1-.92-4.81,12.06,12.06,0,0,1,.9-4.74,10.76,10.76,0,0,1,2.44-3.6,11,11,0,0,1,3.65-2.29,12.29,12.29,0,0,1,4.54-.82,11.43,11.43,0,0,1,4.33.8,9.25,9.25,0,0,1,3.39,2.29,10.53,10.53,0,0,1,2.21,3.65A14,14,0,0,1,164.38,27.31Zm-6.47-2.7a4.22,4.22,0,0,0-1-2.87,4,4,0,0,0-3.15-1.2,5.43,5.43,0,0,0-1.89.32,4.86,4.86,0,0,0-1.5.88,4.37,4.37,0,0,0-1,1.31,3.8,3.8,0,0,0-.43,1.56Z"/><path class="cls-2" d="M172,16.36V21H169.1V16.36h-4.78V13.54h4.75V8.85H172v4.69h4.77v2.82Z"/></svg>